<svg xmlns="http://www.w3.org/2000/svg" xmlns:xlink="http://www.w3.org/1999/xlink" width="492" height="409" viewBox="0 0 492 409">
    <defs>
        <path id="a" d="M0 408.94V.348h492V408.94z"/>
    </defs>
    <g fill="none" fill-rule="evenodd">
        <mask id="b" fill="#fff">
            <use xlink:href="#a"/>
        </mask>
        <path fill="#D5613A" d="M465.112 166.26H135.888L239.384 62.536c5.068-5.064 7.848-11.924 7.848-19.124 0-7.2-2.78-14.012-7.848-19.088L223.28 8.212C218.216 3.148 211.468.348 204.272.348c-7.2 0-13.952 2.78-19.016 7.844L7.844 185.588C2.76 190.672-.02 197.444 0 204.648c-.02 7.244 2.76 14.02 7.844 19.096l177.412 177.412c5.064 5.06 11.812 7.844 19.016 7.844 7.196 0 13.944-2.788 19.008-7.844l16.104-16.112c5.068-5.056 7.848-11.808 7.848-19.008 0-7.196-2.78-13.592-7.848-18.652L134.72 243.08h329.992c14.828 0 27.288-12.78 27.288-27.6v-22.788c0-14.82-12.828-26.6-27.656-26.6" mask="url(#b)"/>
    </g>
</svg>
