<svg xmlns="http://www.w3.org/2000/svg" width="49" height="50" viewBox="0 0 49 50">
    <g fill="#757575" fill-rule="evenodd">
        <path d="M10.667 44.793a1 1 0 0 1-.651-1.76c1.542-1.32 3.688-1.501 5.777-1.501h1.715l2.272-3.26a1.001 1.001 0 0 1 1.641 1.145l-2.57 3.688a1.003 1.003 0 0 1-.82.427h-2.238c-1.97 0-3.487.174-4.476 1.02a.997.997 0 0 1-.65.24M37.32 44.755a.997.997 0 0 1-.69-.277c-.892-.852-2.056-.946-4.317-.946h-2.236a1 1 0 0 1-.814-.42l-2.631-3.686a1 1 0 0 1 1.627-1.162l2.333 3.268h1.72c2.03 0 4.13 0 5.7 1.499a1.001 1.001 0 0 1-.691 1.724"/>
        <path d="M27.36 13.11c-1.332 0-2.79.484-4.331 1.44a.998.998 0 0 1-.526.15c-5.71 0-5.71 2.06-5.71 4.05 0 .131-.025.261-.076.384-.017.042-1.797 4.498.313 9.306a.989.989 0 0 1 .084.402c0 4.418 3.536 9.093 6.879 9.093 3.342 0 6.877-4.675 6.877-9.093a1 1 0 0 1 .363-.77c1.45-1.203.872-6.014-.003-9.046a.999.999 0 0 1 .026-.632 3.883 3.883 0 0 0-.438-3.58c-.76-1.099-1.986-1.704-3.457-1.704m-3.368 26.825c-4.714 0-8.763-5.929-8.876-10.882-2.106-4.993-.686-9.5-.322-10.493.038-3.024 1.04-5.78 7.425-5.858 1.776-1.057 3.504-1.592 5.14-1.592 2.117 0 3.977.936 5.104 2.567a5.887 5.887 0 0 1 .774 5.103c.438 1.628 1.93 7.907-.377 10.492-.225 4.906-4.224 10.663-8.868 10.663"/>
        <path d="M24.001 3c-12.132 0-22 9.869-22 22.001 0 12.132 9.868 22.002 22 22.002s22.001-9.87 22.001-22.002S36.133 3 24.002 3m0 46.003C10.766 49.003 0 38.235 0 25.001 0 11.767 10.767 1 24.001 1c13.234 0 24.001 10.767 24.001 24.001 0 13.234-10.767 24.002-24 24.002"/>
    </g>
</svg>
